<svg xmlns="http://www.w3.org/2000/svg" xmlns:xlink="http://www.w3.org/1999/xlink" width="2000" zoomAndPan="magnify" viewBox="0 0 1500 1499.999933" height="2000" preserveAspectRatio="xMidYMid meet" version="1.0"><defs><clipPath id="b7cda093d1"><path d="M 88 93 L 324 93 L 324 625.808594 L 88 625.808594 Z M 88 93 " clip-rule="nonzero"/></clipPath><clipPath id="1b2544a976"><path d="M 221.414062 105.515625 L 322.410156 556.269531 C 326.15625 572.996094 322.101562 590.515625 311.390625 603.898438 C 300.675781 617.277344 284.464844 625.0625 267.324219 625.0625 L 144.675781 625.0625 C 127.535156 625.0625 111.324219 617.277344 100.609375 603.898438 C 89.898438 590.515625 85.84375 572.996094 89.589844 556.269531 L 190.585938 105.515625 C 192.203125 98.304688 198.605469 93.175781 206 93.175781 C 213.394531 93.175781 219.796875 98.304688 221.414062 105.515625 Z M 221.414062 105.515625 " clip-rule="nonzero"/></clipPath><clipPath id="b41c712ce8"><path d="M 0 0.121094 L 236 0.121094 L 236 532 L 0 532 Z M 0 0.121094 " clip-rule="nonzero"/></clipPath><clipPath id="121cd9b904"><path d="M 133.414062 12.515625 L 234.410156 463.269531 C 238.15625 479.996094 234.101562 497.515625 223.390625 510.898438 C 212.675781 524.277344 196.464844 532.0625 179.324219 532.0625 L 56.675781 532.0625 C 39.535156 532.0625 23.324219 524.277344 12.609375 510.898438 C 1.898438 497.515625 -2.15625 479.996094 1.589844 463.269531 L 102.585938 12.515625 C 104.203125 5.304688 110.605469 0.175781 118 0.175781 C 125.394531 0.175781 131.796875 5.304688 133.414062 12.515625 Z M 133.414062 12.515625 " clip-rule="nonzero"/></clipPath><clipPath id="5b32497abc"><rect x="0" width="236" y="0" height="533"/></clipPath><clipPath id="4113c2eab3"><path d="M 88 93 L 324 93 L 324 625.042969 L 88 625.042969 Z M 88 93 " clip-rule="nonzero"/></clipPath><clipPath id="89a016879d"><path d="M 221.414062 105.515625 L 322.40625 556.265625 C 326.15625 572.988281 322.101562 590.511719 311.386719 603.890625 C 300.675781 617.269531 284.460938 625.058594 267.320312 625.058594 L 144.675781 625.058594 C 127.535156 625.058594 111.324219 617.269531 100.613281 603.890625 C 89.898438 590.511719 85.84375 572.988281 89.589844 556.265625 L 190.585938 105.515625 C 192.203125 98.300781 198.605469 93.175781 206 93.175781 C 213.390625 93.175781 219.796875 98.300781 221.414062 105.515625 Z M 221.414062 105.515625 " clip-rule="nonzero"/></clipPath><clipPath id="0f7d629124"><path d="M 124.019531 531.363281 L 287.980469 531.363281 L 287.980469 695.328125 L 124.019531 695.328125 Z M 124.019531 531.363281 " clip-rule="nonzero"/></clipPath><clipPath id="d063e41fcc"><path d="M 206 531.363281 C 160.722656 531.363281 124.019531 568.070312 124.019531 613.34375 C 124.019531 658.621094 160.722656 695.328125 206 695.328125 C 251.277344 695.328125 287.980469 658.621094 287.980469 613.34375 C 287.980469 568.070312 251.277344 531.363281 206 531.363281 Z M 206 531.363281 " clip-rule="nonzero"/></clipPath><clipPath id="f1f80466da"><path d="M 0.0195312 0.363281 L 163.980469 0.363281 L 163.980469 164.328125 L 0.0195312 164.328125 Z M 0.0195312 0.363281 " clip-rule="nonzero"/></clipPath><clipPath id="d022dad5d5"><path d="M 82 0.363281 C 36.722656 0.363281 0.0195312 37.070312 0.0195312 82.34375 C 0.0195312 127.621094 36.722656 164.328125 82 164.328125 C 127.277344 164.328125 163.980469 127.621094 163.980469 82.34375 C 163.980469 37.070312 127.277344 0.363281 82 0.363281 Z M 82 0.363281 " clip-rule="nonzero"/></clipPath><clipPath id="a86e266a2c"><rect x="0" width="164" y="0" height="165"/></clipPath><clipPath id="007f3b4200"><path d="M 124.019531 531.363281 L 287.496094 531.363281 L 287.496094 694.839844 L 124.019531 694.839844 Z M 124.019531 531.363281 " clip-rule="nonzero"/></clipPath><clipPath id="e0320a893d"><path d="M 205.992188 531.363281 C 160.71875 531.363281 124.019531 568.066406 124.019531 613.339844 C 124.019531 658.613281 160.71875 695.316406 205.992188 695.316406 C 251.265625 695.316406 287.96875 658.613281 287.96875 613.339844 C 287.96875 568.066406 251.265625 531.363281 205.992188 531.363281 Z M 205.992188 531.363281 " clip-rule="nonzero"/></clipPath><clipPath id="1d90e45adc"><rect x="0" width="414" y="0" height="791"/></clipPath></defs><g transform="matrix(1, 0, 0, 1, 544, 324)"><g clip-path="url(#1d90e45adc)"><g clip-path="url(#b7cda093d1)"><g clip-path="url(#1b2544a976)"><g transform="matrix(1, 0, 0, 1, 88, 93)"><g clip-path="url(#5b32497abc)"><g clip-path="url(#b41c712ce8)"><g clip-path="url(#121cd9b904)"><path fill="#e64e49" d="M -13.824219 -56.277344 L 249.824219 -56.277344 L 249.824219 531.777344 L -13.824219 531.777344 Z M -13.824219 -56.277344 " fill-opacity="1" fill-rule="nonzero"/></g></g></g></g></g></g><g clip-path="url(#4113c2eab3)"><g clip-path="url(#89a016879d)"><path stroke-linecap="butt" transform="matrix(0.9789, 0, 0, 0.9789, 74.176582, 36.722879)" fill="none" stroke-linejoin="miter" d="M 150.41111 70.275539 L 253.580133 530.741227 C 257.410962 547.824332 253.268878 565.725478 242.323081 579.39276 C 231.381275 593.060042 214.816929 601.016994 197.306846 601.016994 L 72.018774 601.016994 C 54.508692 601.016994 37.948336 593.060042 27.006529 579.39276 C 16.060732 565.725478 11.918648 547.824332 15.745487 530.741227 L 118.918501 70.275539 C 120.570546 62.905183 127.110889 57.669716 134.664805 57.669716 C 142.214732 57.669716 148.759065 62.905183 150.41111 70.275539 Z M 150.41111 70.275539 " stroke="#000000" stroke-width="42.905285" stroke-opacity="1" stroke-miterlimit="4"/></g></g><g clip-path="url(#0f7d629124)"><g clip-path="url(#d063e41fcc)"><g transform="matrix(1, 0, 0, 1, 124, 531)"><g clip-path="url(#a86e266a2c)"><g clip-path="url(#f1f80466da)"><g clip-path="url(#d022dad5d5)"><path fill="#a6a6a6" d="M 0.0195312 0.363281 L 163.980469 0.363281 L 163.980469 164.328125 L 0.0195312 164.328125 Z M 0.0195312 0.363281 " fill-opacity="1" fill-rule="nonzero"/></g></g></g></g></g></g><g clip-path="url(#007f3b4200)"><g clip-path="url(#e0320a893d)"><path stroke-linecap="butt" transform="matrix(0.9789, 0, 0, 0.9789, 124.018529, 531.36437)" fill="none" stroke-linejoin="miter" d="M 83.740559 -0.00111255 C 37.491275 -0.00111255 0.00102343 37.49313 0.00102343 83.742413 C 0.00102343 129.991697 37.491275 167.485939 83.740559 167.485939 C 129.989842 167.485939 167.484085 129.991697 167.484085 83.742413 C 167.484085 37.49313 129.989842 -0.00111255 83.740559 -0.00111255 Z M 83.740559 -0.00111255 " stroke="#000000" stroke-width="47.502281" stroke-opacity="1" stroke-miterlimit="4"/></g></g></g></g></svg>