<svg xmlns="http://www.w3.org/2000/svg" xmlns:xlink="http://www.w3.org/1999/xlink" width="2000" zoomAndPan="magnify" viewBox="0 0 1500 1499.999933" height="2000" preserveAspectRatio="xMidYMid meet" version="1.0"><defs><clipPath id="edc1f697f9"><path d="M 262.5 262.5 L 1237.5 262.5 L 1237.5 1237.5 L 262.5 1237.5 Z M 262.5 262.5 " clip-rule="nonzero"/></clipPath></defs><g clip-path="url(#edc1f697f9)"><path fill="#ffffff" d="M 1200.9375 643.664062 L 1160.414062 643.664062 C 1155.84375 643.664062 1151.578125 640.3125 1150.054688 635.4375 C 1141.21875 604.664062 1129.03125 575.109375 1113.796875 547.6875 C 1111.359375 543.421875 1112.273438 537.9375 1115.320312 534.890625 L 1144.265625 505.945312 C 1158.28125 491.625 1158.28125 468.773438 1144.265625 454.757812 L 1045.242188 355.734375 C 1035.796875 346.59375 1026.046875 344.460938 1019.34375 344.460938 C 1012.640625 344.460938 1002.890625 346.59375 993.445312 355.734375 L 964.804688 384.679688 C 961.757812 387.726562 956.273438 388.335938 952.007812 385.898438 C 924.890625 370.664062 895.335938 358.476562 863.953125 349.335938 C 859.382812 348.117188 856.335938 344.15625 856.335938 339.28125 L 856.335938 298.757812 C 856.335938 278.648438 839.882812 262.5 819.773438 262.5 L 679.617188 262.5 C 659.8125 262.5 643.664062 278.648438 643.664062 298.757812 L 643.664062 339.28125 C 643.664062 343.851562 640.007812 348.117188 635.4375 349.335938 C 604.664062 358.171875 575.109375 370.359375 547.382812 385.898438 C 543.117188 388.335938 537.632812 387.726562 534.585938 384.679688 L 507.773438 357.867188 C 494.367188 342.023438 464.203125 344.15625 454.757812 355.734375 L 357.5625 453.234375 C 349.335938 459.9375 344.765625 469.6875 344.765625 480.351562 C 344.765625 490.710938 349.335938 500.765625 355.734375 505.945312 L 384.070312 534.585938 C 387.421875 537.9375 388.03125 543.421875 385.59375 547.6875 C 370.359375 575.109375 358.171875 604.664062 349.03125 635.742188 C 347.8125 640.3125 343.851562 643.664062 339.28125 643.664062 L 298.453125 643.664062 C 278.648438 643.664062 262.5 660.117188 262.5 679.921875 L 262.5 820.078125 C 262.5 840.1875 278.648438 856.335938 298.453125 856.335938 L 339.28125 856.335938 C 343.546875 856.335938 347.8125 859.6875 349.335938 864.257812 C 358.171875 895.335938 370.359375 925.195312 385.59375 952.3125 C 388.03125 956.882812 387.726562 961.757812 384.375 965.109375 L 355.429688 994.054688 C 341.109375 1008.375 341.109375 1030.921875 355.734375 1045.242188 L 453.234375 1142.742188 C 459.9375 1150.664062 469.992188 1155.234375 480.351562 1155.234375 C 490.710938 1155.234375 500.460938 1150.664062 505.945312 1144.265625 L 534.585938 1115.625 C 537.9375 1112.273438 543.421875 1111.664062 547.382812 1114.101562 C 576.328125 1129.945312 606.1875 1142.4375 635.132812 1150.359375 C 640.007812 1151.882812 643.664062 1156.148438 643.664062 1160.71875 L 643.664062 1201.546875 C 643.664062 1221.351562 659.8125 1237.5 679.617188 1237.5 L 819.773438 1237.5 C 839.882812 1237.5 856.335938 1221.351562 856.335938 1201.546875 L 856.335938 1160.71875 C 856.335938 1156.148438 859.6875 1151.882812 863.953125 1150.359375 C 893.8125 1142.132812 923.367188 1129.945312 951.703125 1114.101562 C 955.96875 1111.664062 961.453125 1112.273438 964.804688 1115.625 L 995.273438 1146.09375 C 1009.289062 1157.976562 1029.398438 1157.976562 1044.9375 1144.265625 L 1145.789062 1043.414062 C 1157.671875 1029.703125 1157.671875 1009.59375 1144.265625 993.75 L 1115.320312 965.109375 C 1111.96875 961.757812 1111.359375 956.578125 1113.796875 952.3125 C 1129.03125 924.890625 1141.21875 895.335938 1150.054688 864.5625 C 1151.578125 859.992188 1155.84375 856.335938 1160.414062 856.335938 L 1200.9375 856.335938 C 1221.046875 856.335938 1237.5 840.1875 1237.5 820.078125 L 1237.5 679.921875 C 1237.5 660.117188 1221.046875 643.664062 1200.9375 643.664062 Z M 881.625 932.507812 C 843.84375 959.625 799.96875 974.25 754.265625 975.164062 L 749.695312 975.164062 C 657.984375 975.164062 573.585938 917.882812 540.070312 832.570312 C 505.640625 744.515625 530.320312 643.054688 601.617188 580.289062 C 672 518.132812 778.335938 507.46875 860.296875 553.78125 C 954.140625 606.492188 998.015625 723.1875 962.367188 825.257812 C 947.132812 868.21875 919.40625 905.085938 881.625 932.507812 Z M 881.625 932.507812 " fill-opacity="1" fill-rule="nonzero"/></g></svg>