<svg xmlns="http://www.w3.org/2000/svg" xmlns:xlink="http://www.w3.org/1999/xlink" width="2000" zoomAndPan="magnify" viewBox="0 0 1500 1499.999933" height="2000" preserveAspectRatio="xMidYMid meet" version="1.0"><defs><clipPath id="c25bb72ad3"><path d="M 311.25 311.25 L 1188.75 311.25 L 1188.75 1188.75 L 311.25 1188.75 Z M 311.25 311.25 " clip-rule="nonzero"/></clipPath></defs><g clip-path="url(#c25bb72ad3)"><path fill="#fefefd" d="M 421 311.179688 C 360.9375 311.179688 311.320312 360.796875 311.320312 420.859375 L 311.320312 1078.929688 C 311.320312 1138.992188 360.9375 1188.609375 421 1188.609375 L 903.585938 1188.609375 C 963.648438 1188.609375 1013.265625 1138.992188 1013.265625 1078.929688 L 1013.265625 1056.996094 C 1013.285156 1055.546875 1013.234375 1054.097656 1013.109375 1052.652344 C 1012.988281 1051.207031 1012.792969 1049.773438 1012.527344 1048.347656 C 1012.261719 1046.921875 1011.925781 1045.511719 1011.523438 1044.121094 C 1011.117188 1042.730469 1010.644531 1041.359375 1010.105469 1040.015625 C 1009.5625 1038.667969 1008.957031 1037.355469 1008.285156 1036.070312 C 1007.617188 1034.785156 1006.882812 1033.535156 1006.089844 1032.320312 C 1005.292969 1031.109375 1004.441406 1029.9375 1003.53125 1028.808594 C 1002.617188 1027.683594 1001.652344 1026.601562 1000.636719 1025.570312 C 999.617188 1024.535156 998.550781 1023.558594 997.4375 1022.628906 C 996.320312 1021.703125 995.164062 1020.835938 993.960938 1020.023438 C 992.761719 1019.210938 991.523438 1018.460938 990.246094 1017.769531 C 988.96875 1017.082031 987.664062 1016.457031 986.328125 1015.898438 C 984.988281 1015.339844 983.625 1014.847656 982.242188 1014.421875 C 980.855469 1013.996094 979.449219 1013.640625 978.027344 1013.355469 C 976.605469 1013.070312 975.175781 1012.855469 973.730469 1012.714844 C 972.289062 1012.570312 970.84375 1012.5 969.390625 1012.5 C 967.941406 1012.5 966.496094 1012.570312 965.054688 1012.714844 C 963.609375 1012.855469 962.179688 1013.070312 960.757812 1013.355469 C 959.335938 1013.640625 957.929688 1013.996094 956.542969 1014.421875 C 955.160156 1014.847656 953.796875 1015.339844 952.457031 1015.898438 C 951.121094 1016.457031 949.8125 1017.082031 948.539062 1017.769531 C 947.261719 1018.460938 946.023438 1019.210938 944.824219 1020.023438 C 943.621094 1020.835938 942.464844 1021.703125 941.347656 1022.628906 C 940.234375 1023.558594 939.167969 1024.535156 938.148438 1025.570312 C 937.128906 1026.601562 936.167969 1027.683594 935.253906 1028.808594 C 934.34375 1029.9375 933.492188 1031.109375 932.695312 1032.320312 C 931.902344 1033.535156 931.167969 1034.785156 930.5 1036.070312 C 929.828125 1037.355469 929.222656 1038.667969 928.679688 1040.015625 C 928.140625 1041.359375 927.667969 1042.730469 927.261719 1044.121094 C 926.855469 1045.511719 926.523438 1046.921875 926.257812 1048.347656 C 925.992188 1049.773438 925.796875 1051.207031 925.675781 1052.652344 C 925.550781 1054.097656 925.5 1055.546875 925.519531 1056.996094 L 925.519531 1078.929688 C 925.519531 1091.519531 916.171875 1100.867188 903.585938 1100.867188 L 421 1100.867188 C 408.410156 1100.867188 399.0625 1091.519531 399.0625 1078.929688 L 399.0625 420.859375 C 399.0625 408.269531 408.410156 398.921875 421 398.921875 L 903.585938 398.921875 C 916.171875 398.921875 925.519531 408.269531 925.519531 420.859375 L 925.519531 442.792969 C 925.5 444.242188 925.550781 445.691406 925.675781 447.136719 C 925.796875 448.582031 925.992188 450.015625 926.257812 451.441406 C 926.523438 452.867188 926.855469 454.277344 927.261719 455.667969 C 927.667969 457.058594 928.140625 458.429688 928.679688 459.773438 C 929.222656 461.121094 929.828125 462.433594 930.5 463.71875 C 931.167969 465.007812 931.902344 466.253906 932.695312 467.46875 C 933.492188 468.679688 934.34375 469.851562 935.253906 470.980469 C 936.167969 472.105469 937.128906 473.1875 938.148438 474.21875 C 939.167969 475.253906 940.234375 476.230469 941.347656 477.160156 C 942.464844 478.085938 943.621094 478.953125 944.824219 479.765625 C 946.023438 480.578125 947.261719 481.328125 948.539062 482.019531 C 949.8125 482.707031 951.121094 483.332031 952.457031 483.890625 C 953.796875 484.449219 955.160156 484.941406 956.542969 485.367188 C 957.929688 485.792969 959.335938 486.148438 960.757812 486.433594 C 962.179688 486.71875 963.609375 486.933594 965.054688 487.074219 C 966.496094 487.21875 967.941406 487.289062 969.390625 487.289062 C 970.84375 487.289062 972.289062 487.21875 973.730469 487.074219 C 975.175781 486.933594 976.605469 486.71875 978.027344 486.433594 C 979.449219 486.148438 980.855469 485.792969 982.238281 485.367188 C 983.625 484.941406 984.988281 484.449219 986.328125 483.890625 C 987.664062 483.332031 988.96875 482.707031 990.246094 482.019531 C 991.523438 481.328125 992.761719 480.578125 993.960938 479.765625 C 995.164062 478.953125 996.320312 478.085938 997.4375 477.160156 C 998.550781 476.230469 999.617188 475.253906 1000.636719 474.21875 C 1001.652344 473.1875 1002.617188 472.105469 1003.53125 470.980469 C 1004.441406 469.851562 1005.292969 468.679688 1006.089844 467.46875 C 1006.882812 466.253906 1007.617188 465.007812 1008.285156 463.71875 C 1008.957031 462.433594 1009.5625 461.121094 1010.105469 459.773438 C 1010.644531 458.429688 1011.117188 457.058594 1011.523438 455.667969 C 1011.925781 454.277344 1012.261719 452.867188 1012.527344 451.441406 C 1012.792969 450.015625 1012.988281 448.582031 1013.109375 447.136719 C 1013.234375 445.691406 1013.285156 444.242188 1013.265625 442.792969 L 1013.265625 420.859375 C 1013.265625 360.796875 963.648438 311.179688 903.585938 311.179688 Z M 1012.835938 573.980469 C 1010.664062 573.980469 1008.507812 574.140625 1006.363281 574.460938 C 1004.214844 574.78125 1002.105469 575.261719 1000.03125 575.894531 C 997.953125 576.527344 995.9375 577.3125 993.980469 578.246094 C 992.019531 579.179688 990.140625 580.25 988.339844 581.460938 C 986.539062 582.675781 984.839844 584.011719 983.238281 585.476562 C 981.636719 586.941406 980.152344 588.515625 978.785156 590.199219 C 977.417969 591.882812 976.179688 593.660156 975.078125 595.527344 C 973.972656 597.398438 973.011719 599.335938 972.195312 601.347656 C 971.378906 603.355469 970.714844 605.414062 970.203125 607.523438 C 969.695312 609.632812 969.339844 611.769531 969.148438 613.929688 C 968.953125 616.089844 968.917969 618.253906 969.046875 620.421875 C 969.171875 622.585938 969.457031 624.730469 969.902344 626.855469 C 970.347656 628.980469 970.949219 631.058594 971.703125 633.09375 C 972.457031 635.128906 973.355469 637.097656 974.402344 638.996094 C 975.445312 640.898438 976.625 642.714844 977.941406 644.4375 C 979.253906 646.164062 980.691406 647.785156 982.246094 649.296875 L 1038.96875 706.023438 L 706.164062 706.023438 C 704.714844 706.003906 703.265625 706.054688 701.820312 706.175781 C 700.378906 706.300781 698.941406 706.492188 697.515625 706.757812 C 696.089844 707.023438 694.683594 707.359375 693.289062 707.765625 C 691.898438 708.167969 690.527344 708.640625 689.183594 709.183594 C 687.839844 709.722656 686.523438 710.328125 685.238281 711 C 683.953125 711.671875 682.703125 712.40625 681.492188 713.199219 C 680.277344 713.996094 679.109375 714.847656 677.980469 715.757812 C 676.851562 716.667969 675.769531 717.632812 674.738281 718.652344 C 673.707031 719.667969 672.726562 720.734375 671.800781 721.851562 C 670.875 722.964844 670.003906 724.125 669.191406 725.324219 C 668.378906 726.527344 667.628906 727.765625 666.941406 729.042969 C 666.25 730.316406 665.628906 731.625 665.066406 732.960938 C 664.507812 734.296875 664.015625 735.660156 663.589844 737.046875 C 663.167969 738.433594 662.8125 739.835938 662.527344 741.257812 C 662.242188 742.679688 662.027344 744.113281 661.882812 745.554688 C 661.738281 747 661.667969 748.445312 661.667969 749.894531 C 661.667969 751.34375 661.738281 752.789062 661.882812 754.234375 C 662.027344 755.675781 662.242188 757.109375 662.527344 758.53125 C 662.8125 759.953125 663.167969 761.355469 663.589844 762.742188 C 664.015625 764.128906 664.507812 765.492188 665.066406 766.828125 C 665.628906 768.164062 666.25 769.472656 666.941406 770.75 C 667.628906 772.023438 668.378906 773.261719 669.191406 774.464844 C 670.003906 775.664062 670.875 776.824219 671.800781 777.9375 C 672.726562 779.054688 673.707031 780.121094 674.738281 781.136719 C 675.769531 782.15625 676.851562 783.121094 677.980469 784.03125 C 679.109375 784.941406 680.277344 785.792969 681.492188 786.589844 C 682.703125 787.382812 683.953125 788.117188 685.238281 788.789062 C 686.523438 789.460938 687.839844 790.066406 689.183594 790.605469 C 690.527344 791.148438 691.898438 791.621094 693.289062 792.023438 C 694.683594 792.429688 696.089844 792.765625 697.515625 793.03125 C 698.941406 793.296875 700.378906 793.488281 701.820312 793.613281 C 703.265625 793.734375 704.714844 793.785156 706.164062 793.765625 L 1038.96875 793.765625 L 982.246094 850.492188 C 981.195312 851.5 980.199219 852.554688 979.253906 853.664062 C 978.308594 854.769531 977.421875 855.921875 976.589844 857.117188 C 975.761719 858.3125 974.992188 859.546875 974.285156 860.820312 C 973.578125 862.09375 972.933594 863.398438 972.359375 864.734375 C 971.78125 866.070312 971.269531 867.429688 970.828125 868.816406 C 970.386719 870.203125 970.015625 871.609375 969.710938 873.035156 C 969.410156 874.457031 969.179688 875.894531 969.019531 877.339844 C 968.863281 878.785156 968.773438 880.238281 968.757812 881.695312 C 968.746094 883.148438 968.800781 884.601562 968.933594 886.050781 C 969.0625 887.5 969.261719 888.941406 969.535156 890.371094 C 969.808594 891.800781 970.152344 893.214844 970.566406 894.609375 C 970.980469 896.003906 971.460938 897.375 972.011719 898.722656 C 972.5625 900.070312 973.179688 901.390625 973.859375 902.675781 C 974.539062 903.960938 975.285156 905.210938 976.089844 906.421875 C 976.894531 907.636719 977.757812 908.804688 978.679688 909.929688 C 979.605469 911.058594 980.578125 912.136719 981.609375 913.164062 C 982.636719 914.195312 983.714844 915.167969 984.84375 916.089844 C 985.96875 917.011719 987.136719 917.878906 988.351562 918.683594 C 989.5625 919.488281 990.8125 920.230469 992.097656 920.914062 C 993.382812 921.59375 994.703125 922.210938 996.050781 922.761719 C 997.398438 923.3125 998.769531 923.792969 1000.164062 924.207031 C 1001.558594 924.621094 1002.972656 924.964844 1004.402344 925.238281 C 1005.832031 925.507812 1007.269531 925.710938 1008.722656 925.839844 C 1010.171875 925.96875 1011.625 926.027344 1013.078125 926.011719 C 1014.535156 926 1015.984375 925.910156 1017.433594 925.753906 C 1018.878906 925.59375 1020.316406 925.363281 1021.738281 925.058594 C 1023.164062 924.757812 1024.570312 924.386719 1025.957031 923.945312 C 1027.34375 923.503906 1028.703125 922.992188 1030.039062 922.414062 C 1031.375 921.835938 1032.679688 921.195312 1033.953125 920.488281 C 1035.226562 919.78125 1036.457031 919.011719 1037.65625 918.183594 C 1038.851562 917.351562 1040 916.464844 1041.109375 915.519531 C 1042.214844 914.574219 1043.273438 913.578125 1044.28125 912.527344 L 1175.898438 780.914062 C 1176.914062 779.898438 1177.875 778.832031 1178.785156 777.722656 C 1179.699219 776.613281 1180.554688 775.460938 1181.351562 774.265625 C 1182.148438 773.070312 1182.886719 771.839844 1183.5625 770.574219 C 1184.242188 769.304688 1184.855469 768.007812 1185.402344 766.679688 C 1185.953125 765.355469 1186.4375 764.003906 1186.851562 762.628906 C 1187.269531 761.253906 1187.617188 759.859375 1187.898438 758.453125 C 1188.179688 757.042969 1188.390625 755.625 1188.53125 754.195312 C 1188.671875 752.765625 1188.742188 751.332031 1188.742188 749.894531 C 1188.742188 748.457031 1188.671875 747.023438 1188.53125 745.59375 C 1188.390625 744.164062 1188.179688 742.746094 1187.898438 741.335938 C 1187.617188 739.929688 1187.269531 738.535156 1186.851562 737.160156 C 1186.4375 735.785156 1185.953125 734.433594 1185.402344 733.109375 C 1184.855469 731.78125 1184.242188 730.484375 1183.5625 729.214844 C 1182.886719 727.949219 1182.148438 726.71875 1181.351562 725.523438 C 1180.554688 724.328125 1179.699219 723.175781 1178.785156 722.066406 C 1177.875 720.957031 1176.914062 719.890625 1175.898438 718.875 L 1044.28125 587.261719 C 1042.238281 585.160156 1040.003906 583.28125 1037.585938 581.628906 C 1035.164062 579.976562 1032.605469 578.578125 1029.902344 577.4375 C 1027.203125 576.296875 1024.414062 575.433594 1021.542969 574.851562 C 1018.667969 574.269531 1015.765625 573.980469 1012.835938 573.980469 Z M 1012.835938 573.980469 " fill-opacity="1" fill-rule="nonzero"/></g></svg>