<svg xmlns="http://www.w3.org/2000/svg" xmlns:xlink="http://www.w3.org/1999/xlink" width="2000" zoomAndPan="magnify" viewBox="0 0 1500 1499.999933" height="2000" preserveAspectRatio="xMidYMid meet" version="1.0"><defs><clipPath id="89761c93eb"><path d="M 348.4375 262 L 1151.6875 262 L 1151.6875 1203.324219 L 348.4375 1203.324219 Z M 348.4375 262 " clip-rule="nonzero"/></clipPath></defs><g clip-path="url(#89761c93eb)"><path fill="#fefefd" d="M 1131.578125 676.3125 C 1119.476562 639.527344 1079.890625 619.5 1043.070312 631.605469 C 1006.285156 643.699219 986.273438 683.324219 998.367188 720.109375 C 1006.988281 746.316406 1011.351562 773.773438 1011.351562 801.714844 C 1011.351562 945.824219 894.113281 1063.066406 749.996094 1063.066406 C 680.148438 1063.066406 614.535156 1035.886719 565.183594 986.464844 C 515.824219 937.171875 488.640625 871.558594 488.640625 801.714844 C 488.640625 666.882812 591.339844 555.597656 722.648438 541.886719 L 722.648438 642.480469 C 722.648438 672.097656 756.585938 688.882812 780.125 670.910156 L 1005.617188 498.734375 C 1024.371094 484.417969 1024.371094 456.191406 1005.617188 441.875 L 780.125 269.699219 C 756.585938 251.722656 722.648438 268.511719 722.648438 298.128906 L 722.648438 401.253906 C 513.933594 415.371094 348.414062 589.527344 348.414062 801.714844 C 348.414062 909.050781 390.207031 1009.902344 466.019531 1085.617188 C 541.800781 1161.503906 642.652344 1203.296875 749.996094 1203.296875 C 971.433594 1203.296875 1151.582031 1023.148438 1151.582031 801.714844 C 1151.582031 758.871094 1144.855469 716.679688 1131.578125 676.3125 Z M 1131.578125 676.3125 " fill-opacity="1" fill-rule="nonzero"/></g></svg>